<?xml version="1.0" encoding="utf-8"?>
<!-- Generator: Adobe Illustrator 18.0.0, SVG Export Plug-In . SVG Version: 6.00 Build 0)  -->
<!DOCTYPE svg PUBLIC "-//W3C//DTD SVG 1.1//EN" "http://www.w3.org/Graphics/SVG/1.1/DTD/svg11.dtd">
<svg version="1.1" id="Layer_1" xmlns="http://www.w3.org/2000/svg" xmlns:xlink="http://www.w3.org/1999/xlink" x="0px" y="0px"
	 viewBox="-117.5 875 235 50" enable-background="new -117.5 875 235 50" xml:space="preserve">
<g>
	<rect x="-66.9" y="896.9" fill="#FFFFFF" width="3.3" height="6.7"/>
	<rect x="-19.3" y="896.9" fill="#FFFFFF" width="3.3" height="6.7"/>
	<g>
		<path fill="#FFFFFF" d="M-81.5,889.5l-2.3,2.2c-1.6-1.6-3.3-2.4-5.3-2.4c-1.6,0-3,0.6-4.2,1.7c-1.1,1.1-1.7,2.5-1.7,4.1
			c0,1.1,0.2,2.2,0.7,3c0.5,0.9,1.2,1.6,2.1,2.1c0.9,0.5,1.9,0.8,3,0.8c1,0,1.8-0.2,2.6-0.5c0.8-0.4,1.7-1,2.6-1.9l2.2,2.3
			c-1.3,1.2-2.5,2.1-3.6,2.6c-1.1,0.5-2.4,0.7-3.9,0.7c-2.7,0-4.9-0.8-6.6-2.5c-1.7-1.7-2.6-3.8-2.6-6.5c0-1.7,0.4-3.2,1.2-4.5
			c0.8-1.3,1.9-2.4,3.3-3.2c1.4-0.8,3-1.2,4.7-1.2c1.4,0,2.8,0.3,4.1,0.9C-83.5,887.5-82.4,888.4-81.5,889.5"/>
		<polygon fill="#FFFFFF" points="-79.2,886.5 -69.6,886.5 -69.6,889.7 -72.8,889.7 -72.8,903.5 -76.1,903.5 -76.1,889.7 
			-79.2,889.7 		"/>
		<rect x="-66.9" y="886.5" fill="#FFFFFF" width="3.3" height="6.7"/>
		<rect x="-19.3" y="886.5" fill="#FFFFFF" width="3.3" height="6.7"/>
		<polygon fill="#FFFFFF" points="-62.3,886.5 -58.9,886.5 -54.6,898.6 -50.2,886.5 -46.8,886.5 -53,903.5 -56.2,903.5 		"/>
		<polygon fill="#FFFFFF" points="-31.8,886.5 -22.2,886.5 -22.2,889.7 -25.4,889.7 -25.4,903.5 -28.7,903.5 -28.7,889.7 
			-31.8,889.7 		"/>
		<path fill="#FFFFFF" d="M-4.8,886c2.4,0,4.5,0.9,6.3,2.6c1.8,1.8,2.6,3.9,2.6,6.4c0,2.5-0.9,4.6-2.6,6.3c-1.7,1.7-3.8,2.6-6.3,2.6
			c-2.6,0-4.7-0.9-6.4-2.7c-1.7-1.8-2.6-3.9-2.6-6.3c0-1.6,0.4-3.1,1.2-4.5c0.8-1.4,1.9-2.5,3.3-3.3C-8,886.4-6.5,886-4.8,886
			 M-4.9,889.2c-1.6,0-2.9,0.5-4,1.6c-1.1,1.1-1.6,2.5-1.6,4.2c0,1.9,0.7,3.4,2.1,4.5c1.1,0.9,2.3,1.3,3.7,1.3c1.6,0,2.9-0.6,4-1.7
			c1.1-1.1,1.6-2.5,1.6-4.1c0-1.6-0.6-3-1.7-4.1C-2,889.8-3.3,889.2-4.9,889.2"/>
		<polygon fill="#FFFFFF" points="6.5,886.5 9.6,886.5 17,897.7 17,886.5 20.3,886.5 20.3,903.5 17.1,903.5 9.8,892.3 9.8,903.5 
			6.5,903.5 		"/>
		<polygon fill="#FFFFFF" points="-105.1,886.5 -108.5,886.5 -115.1,903.5 -111.7,903.5 -106.8,891 -101.9,903.5 -98.5,903.5 		"/>
		<polygon fill="#FFFFFF" points="-38.4,886.5 -41.7,886.5 -48.4,903.5 -45,903.5 -40,891 -35.2,903.5 -31.8,903.5 		"/>
		<path fill="#FFFFFF" d="M42.7,896.7h6c-0.8,3.5-3.9,6-7.5,6c-4.2,0-7.7-3.4-7.7-7.6c0-4.2,3.5-7.6,7.7-7.6c1.6,0,4.5,0.3,6.2,2.5
			l1-0.8c-1.5-1.9-4.1-3-7.3-3c-5,0-9,4-9,8.9c0,4.9,4,8.9,9,8.9c4.6,0,8.4-3.4,8.9-7.8l0.1-0.7h-7.5V896.7z"/>
		<path fill="#FFFFFF" d="M76.3,886.1c-5,0-9,4-9,8.9c0,4.9,4,8.9,9,8.9c5,0,9-4,9-8.9C85.4,890.1,81.3,886.1,76.3,886.1
			 M76.3,902.6c-4.2,0-7.7-3.4-7.7-7.6c0-4.2,3.5-7.6,7.7-7.6c4.2,0,7.7,3.4,7.7,7.6C84,899.2,80.6,902.6,76.3,902.6"/>
		<path fill="#FFFFFF" d="M98.8,898.4c0,2.3-1.9,4.1-4.2,4.1c-3.8,0-4.1-3.7-4.2-4.1v-11.6h-1.3v10.9h0v0.7c0,0,0,0,0,0.1v0.4h0
			c0.1,0.5,0.2,1.4,0.7,2.3c0.7,1.2,2,2.7,4.7,2.7c2.9,0,5.2-2.2,5.4-5h0v-12.1h-1.3V898.4z"/>
		<path fill="#FFFFFF" d="M59.6,895.3L59.6,895.3c2.4-0.1,4.3-2,4.3-4.4c0-2.4-1.9-4.4-4.3-4.4v0h-0.1h0h-5.8v16.9h1.3v-8.1h1.4
			l6.4,8.1h1.8l-6.4-8.1H59.6z M55.1,894.1v-6.2h4.5c1.7,0,3.1,1.4,3.1,3.1c0,1.7-1.4,3.1-3.1,3.1H55.1z"/>
		<path fill="#FFFFFF" d="M115.1,890.9c0-2.4-2-4.4-4.5-4.4h-5.8v16.9h1.3v-8.1h4.6v0C113.2,895.3,115.1,893.3,115.1,890.9
			 M110.6,894.1h-4.5v-6.2h4.6c1.7,0.1,3,1.4,3,3.1C113.8,892.6,112.4,894.1,110.6,894.1"/>
	</g>
</g>
</svg>
